# xmcd
#
# Track frame offsets: 
#        150
#        16578
#        32783
#        57577
#
# Disc length: 1188 seconds
#
# Revision: 3
# Processed by: cddbd v1.5.2PL0 Copyright (c) Steve Scherf et al.
# Submitted via: ExactAudioCopy v1.1
#
DISCID=2904a204
DTITLE=Mark Ronson - Valerie (Maxi-CD)
DYEAR=2007
DGENRE=Pop
TTITLE0=Mark Ronson (Feat. Amy Winehouse) - Valerie (Album Version)
TTITLE1=Mark Ronson (Feat. Amy Winehouse) - Valerie (Baby J Remix)
TTITLE2=Mark Ronson (Feat. Amy Winehouse) - Valerie (Count Of Monte Cr
TTITLE2=istal and Sinden Remix)
TTITLE3=Mark Ronson (Feat. Amy Winehouse) - Valerie (Any Cato 'Pack Up
TTITLE3=And Dance' Remix)
EXTD=
EXTT0=
EXTT1=
EXTT2=
EXTT3=
PLAYORDER=
